<svg width="1980" height="1980" viewBox="0 0 1980 1980" fill="none" xmlns="http://www.w3.org/2000/svg">
<path d="M406.908 1083.1C407.486 1079.51 410.842 1077.08 414.429 1077.66L504.223 1092.03C553.054 1099.91 587.537 1140.35 579.668 1189.26C576.312 1210.01 567.75 1251.38 517.761 1243.38C515.91 1243.15 513.133 1243.96 512.67 1247.09C512.207 1250.22 514.637 1251.84 516.373 1252.19C566.361 1260.19 561.617 1302.26 558.261 1323C550.393 1371.91 505.149 1399.49 456.317 1391.73L366.524 1377.13C362.937 1376.55 360.507 1373.19 361.085 1369.59L406.908 1083.1ZM502.371 1197.61L504.107 1187.06C505.727 1176.86 498.784 1167.13 488.602 1165.5L476.683 1163.53C473.096 1162.95 469.74 1165.39 469.162 1168.98L463.607 1203.52C463.029 1207.11 465.459 1210.47 469.046 1211.05L481.08 1213.02C491.147 1214.76 500.751 1207.8 502.371 1197.61ZM452.383 1314.89L464.302 1316.86C474.484 1318.48 484.089 1311.53 485.709 1301.33L487.444 1290.79C489.064 1280.59 482.122 1270.97 471.939 1269.34L460.02 1267.37C456.433 1266.79 453.077 1269.23 452.499 1272.82L446.945 1307.36C446.366 1310.83 448.796 1314.31 452.383 1314.89Z" fill="#F6EDE4"/>
<path d="M701.4 1312.57H701.053C697.466 1312.57 694.457 1315.59 694.457 1319.18L694.341 1382.57C694.341 1386.17 691.333 1389.18 687.746 1389.18L625.955 1389.06C622.367 1389.06 619.359 1386.05 619.359 1382.46L619.706 1092.37C619.706 1088.78 622.715 1085.77 626.302 1085.77L713.434 1085.88C781.821 1086 807.046 1139.77 806.931 1199.34C806.931 1233.65 798.484 1265.98 778.349 1287.19C776.729 1288.93 776.151 1291.36 776.845 1293.68L804.038 1380.6C804.616 1382.69 804.385 1384.78 802.996 1386.51C801.724 1388.25 799.872 1389.18 797.674 1389.18L734.841 1389.06C731.948 1389.06 729.403 1387.21 728.593 1384.43L707.533 1317.09C706.723 1314.43 704.293 1312.69 701.4 1312.57ZM731.948 1199.23C731.948 1184.63 735.072 1160.98 713.318 1160.98H701.168C697.581 1160.98 694.573 1164 694.573 1167.59L694.457 1230.98C694.457 1234.58 697.466 1237.59 701.053 1237.59H713.203C734.957 1237.59 731.948 1213.95 731.948 1199.23Z" fill="#F6EDE4"/>
<path d="M841.991 1088.55L1016.02 1081.02C1019.61 1080.9 1022.74 1083.68 1022.85 1087.39L1025.51 1149.16C1025.63 1152.75 1022.85 1155.88 1019.15 1156L919.982 1160.29C916.395 1160.4 913.502 1163.53 913.618 1167.13L914.775 1192.97C914.891 1196.56 918.015 1199.46 921.602 1199.34L997.973 1195.98C1001.56 1195.87 1004.68 1198.65 1004.8 1202.36L1007.46 1264.13C1007.58 1267.72 1004.8 1270.85 1001.1 1270.97L924.726 1274.33C921.139 1274.44 918.246 1277.57 918.362 1281.17L919.519 1306.89C919.635 1310.49 922.759 1313.38 926.346 1313.27L1025.17 1309.91C1028.75 1309.79 1031.88 1312.57 1031.99 1316.28L1034.65 1378.05C1034.77 1381.65 1031.99 1384.78 1028.29 1384.89L855.067 1391.5C851.48 1391.61 848.355 1388.83 848.24 1385.12C844.074 1288.47 839.908 1191.93 835.742 1095.27C835.511 1091.79 838.404 1088.67 841.991 1088.55Z" fill="#F6EDE4"/>
<path d="M1194.11 1155.77C1191.45 1155.88 1189.25 1157.97 1189.25 1160.64L1186.12 1377.82C1186.12 1381.3 1183.35 1384.2 1179.88 1384.31L1094.13 1388.25C1090.78 1388.37 1087.88 1386.05 1087.3 1382.69L1041.94 1095.16C1041.6 1093.3 1042.18 1091.45 1043.33 1089.94C1044.49 1088.43 1046.23 1087.62 1048.08 1087.51L1108.6 1084.72C1112.07 1084.61 1115.08 1087.16 1115.42 1090.64L1139.14 1306.55C1139.38 1309.21 1141.81 1311.18 1144.47 1311.07C1147.24 1310.95 1149.44 1308.86 1149.44 1306.08L1153.26 1089.01C1153.38 1085.54 1156.04 1082.64 1159.51 1082.52L1221.19 1079.63C1224.66 1079.51 1227.67 1082.06 1227.9 1085.54L1251.62 1301.33C1251.96 1304 1254.28 1305.97 1257.06 1305.85C1259.72 1305.74 1261.92 1303.65 1261.92 1300.87L1265.73 1083.8C1265.73 1080.32 1268.51 1077.42 1271.98 1077.31L1332.5 1074.53C1334.47 1074.41 1336.2 1075.11 1337.48 1076.5C1338.87 1077.89 1339.44 1079.63 1339.33 1081.6L1320.58 1372.14C1320.35 1375.5 1317.69 1378.17 1314.33 1378.29L1229.17 1382.23C1225.7 1382.34 1222.69 1379.79 1222.34 1376.32L1199.2 1160.29C1199.2 1157.51 1196.77 1155.65 1194.11 1155.77Z" fill="#F6EDE4"/>
<path d="M1389.2 1289.51L1452.5 1261.46C1454.58 1260.54 1456.66 1260.65 1458.63 1261.7C1460.6 1262.74 1461.87 1264.48 1462.22 1266.79L1463.61 1275.26C1463.61 1275.37 1463.61 1275.49 1463.61 1275.6C1465.11 1289.05 1474.48 1295.19 1485.59 1294.03C1496.7 1292.87 1504.57 1284.76 1503.18 1271.2C1498.44 1226.35 1381.68 1265.4 1371.03 1164.34C1364.09 1098.4 1403.67 1059.23 1459.32 1053.32C1513.13 1047.64 1559.65 1074.06 1568.21 1129.46C1568.67 1132.59 1567.05 1135.6 1564.16 1136.99L1500.75 1165.16C1498.67 1166.08 1496.47 1165.97 1494.62 1164.92C1492.65 1163.88 1491.38 1162.14 1491.03 1159.94L1489.64 1151.48C1489.64 1151.36 1489.64 1151.25 1489.64 1151.13C1488.14 1137.57 1478.76 1131.43 1467.77 1132.59C1456.66 1133.75 1448.79 1141.86 1450.18 1155.42C1454.93 1200.27 1571.68 1161.21 1582.33 1262.27C1589.27 1328.22 1549.7 1367.39 1494.04 1373.3C1440.23 1378.98 1393.71 1352.56 1385.27 1297.04C1384.69 1293.8 1386.31 1290.78 1389.2 1289.51Z" fill="#F6EDE4"/>
<path d="M594.249 698.448L663.561 700.65C667.611 700.766 670.851 704.243 670.735 708.299L667.148 821.528C667.033 825.584 670.272 829.061 674.322 829.177L701.631 829.988C705.681 830.104 709.152 826.859 709.268 822.803L712.855 709.574C712.971 705.518 716.442 702.273 720.492 702.388L789.805 704.59C793.855 704.706 797.095 708.183 796.979 712.24L786.796 1037.79C786.68 1041.84 783.209 1045.09 779.159 1044.97L709.847 1042.77C705.797 1042.65 702.557 1039.18 702.672 1035.12L706.259 921.893C706.375 917.836 703.135 914.359 699.085 914.244L671.777 913.432C667.727 913.316 664.255 916.561 664.14 920.618L660.553 1033.85C660.437 1037.9 656.965 1041.15 652.915 1041.03L583.603 1038.83C579.553 1038.71 576.313 1035.24 576.429 1031.18L586.612 705.634C586.727 701.577 590.083 698.332 594.249 698.448Z" fill="#F6EDE4"/>
<path d="M851.365 705.402L1046.81 697.869C1050.86 697.753 1054.33 700.882 1054.56 705.054L1057.22 774.359C1057.34 778.415 1054.21 781.892 1050.05 782.124L938.729 786.412C934.679 786.528 931.439 790.005 931.555 794.177L932.712 823.151C932.828 827.207 936.299 830.452 940.465 830.336L1026.21 826.975C1030.26 826.859 1033.73 829.988 1033.85 834.161L1036.51 903.581C1036.62 907.638 1033.5 911.114 1029.33 911.346L943.589 914.707C939.539 914.823 936.299 918.3 936.415 922.356L937.572 951.33C937.687 955.386 941.159 958.631 945.325 958.515L1056.64 954.227C1060.69 954.111 1064.16 957.24 1064.39 961.413L1067.06 1030.83C1067.17 1034.89 1064.05 1038.37 1059.88 1038.6L864.441 1046.13C860.391 1046.25 856.919 1043.12 856.688 1038.95C852.522 930.469 848.357 821.992 844.075 713.514C844.075 708.994 847.431 705.518 851.365 705.402Z" fill="#F6EDE4"/>
<path d="M1360.04 680.716C1358.07 678.978 1355.06 678.051 1351.82 678.282L1098.99 696.941C1095.75 697.173 1092.97 698.448 1091.24 700.418C1089.39 702.388 1089.15 704.706 1090.31 706.792C1103.97 731.362 1146.09 801.362 1181.61 860.005C1182.07 860.7 1182.3 861.512 1182.42 862.323L1294.31 852.472C1294.31 851.661 1294.31 850.965 1294.66 850.154L1361.78 686.975C1362.59 684.773 1362.12 682.571 1360.04 680.716Z" fill="#F6EDE4"/>
<path d="M1323.47 1029.67L1180.92 1038.71C1172.47 1039.29 1165.29 1035.47 1164.83 1030.37L1167.38 837.058L1302.41 831.263L1337.82 1019.48C1338.29 1024.57 1331.81 1029.09 1323.47 1029.67Z" fill="#F6EDE4"/>
<path d="M1366.17 522.288C1369.18 528.778 1440.58 697.405 1440.58 697.405L1618.66 552.884L1439.31 439.308L1366.17 522.288Z" fill="#F6EDE4"/>
<path d="M1397.88 675.848C1394.76 675.848 1391.63 675.501 1388.39 674.689C1375.43 671.56 1364.9 662.289 1357.38 647.107C1345.58 623.58 1330.88 611.759 1317.11 614.656C1301.95 617.785 1289.57 637.024 1288.41 659.276L1268.74 658.232C1270.36 626.825 1288.99 600.401 1313.06 595.302C1324.05 592.984 1352.17 592.52 1374.97 638.299C1379.83 648.034 1385.85 653.828 1392.9 655.567C1405.05 658.58 1417.67 649.54 1417.78 649.424L1429.47 665.302C1428.78 665.766 1414.89 675.848 1397.88 675.848Z" fill="#F6EDE4"/>
<path d="M1471.71 464.689L1455.39 453.563L1482.93 413L1545.3 429.225L1540.32 448.232L1491.49 435.599L1471.71 464.689Z" fill="#F6EDE4"/>
</svg>
